<svg width="458" height="242" viewBox="0 0 458 242" fill="none" xmlns="http://www.w3.org/2000/svg">
<path d="M112.64 131.174L43.5574 226.116C38.7481 232.726 43.4694 242 51.6433 242H438.521C446.664 242 451.393 232.788 446.647 226.172L291.88 10.3974C288.091 5.11405 280.346 4.7951 276.135 9.74891L164.465 141.114C161.35 144.778 156.068 145.706 151.891 143.323L125.681 128.372C121.255 125.847 115.638 127.054 112.64 131.174Z" fill="#E2E2E2"/>
<circle cx="21.916" cy="75.2595" r="21.916" fill="#F1F3F4"/>
<circle cx="58.1908" cy="69.9695" r="36.2748" fill="#F1F3F4"/>
<circle cx="88.4198" cy="76.0153" r="44.5878" fill="#F1F3F4"/>
<circle cx="139.054" cy="72.2366" r="44.5878" fill="#F1F3F4"/>
<circle r="21.916" transform="matrix(-1 0 0 1 275.084 69.9695)" fill="#F1F3F4"/>
<circle r="21.916" transform="matrix(-1 0 0 1 258.458 86.5955)" fill="#F1F3F4"/>
<circle r="36.2748" transform="matrix(-1 0 0 1 200.267 52.5878)" fill="#F1F3F4"/>
<circle r="33.2519" transform="matrix(-1 0 0 1 228.229 60.1451)" fill="#F1F3F4"/>
<circle r="44.5878" transform="matrix(-1 0 0 1 200.267 76.0153)" fill="#F1F3F4"/>
<circle r="44.5878" transform="matrix(-1 0 0 1 155.679 52.5878)" fill="#F1F3F4"/>
<circle cx="274.799" cy="143.349" r="13.799" fill="#F1F3F4"/>
<circle cx="297.639" cy="140.018" r="22.8397" fill="#F1F3F4"/>
<circle cx="316.672" cy="143.824" r="28.0738" fill="#F1F3F4"/>
<circle cx="348.552" cy="141.445" r="28.0738" fill="#F1F3F4"/>
<circle r="13.799" transform="matrix(-1 0 0 1 434.201 140.018)" fill="#F1F3F4"/>
<circle r="13.799" transform="matrix(-1 0 0 1 423.733 150.486)" fill="#F1F3F4"/>
<circle r="22.8397" transform="matrix(-1 0 0 1 387.094 129.074)" fill="#F1F3F4"/>
<circle r="20.9364" transform="matrix(-1 0 0 1 404.7 133.832)" fill="#F1F3F4"/>
<circle r="28.0738" transform="matrix(-1 0 0 1 387.094 143.824)" fill="#F1F3F4"/>
<circle r="28.0738" transform="matrix(-1 0 0 1 359.02 129.074)" fill="#F1F3F4"/>
</svg>
